
		<svg xmlns="http://www.w3.org/2000/svg" xmlns:xlink="http://www.w3.org/1999/xlink" version="1.1" width="3108.499095840868" height="867.992766726944">
			<rect fill="#fff" width="3108.499095840868" height="867.992766726944"/>
			<g transform="scale(5.424954792043399) translate(10, 10)">
				<defs id="SvgjsDefs1106"></defs><g id="SvgjsG1107" featureKey="root" fill="#ffffff" transform="matrix(1,0,0,1,0,0)"></g><g id="SvgjsG1108" featureKey="symbol1" fill="#009688" transform="matrix(2.6825674583214276,0,0,2.6825674583214276,10,2.3174327015720526)"><title>speed-timer</title><path d="M42.32,13.06l1.13-1.13,1,1a.49.49,0,0,0,.69,0l.69-.69a.49.49,0,0,0,0-.69L42.41,8.14a.49.49,0,0,0-.69,0L41,8.83a.49.49,0,0,0,0,.69l1,1-1.18,1.18A19.91,19.91,0,0,0,30,7.1V5h2a1,1,0,0,0,1-1V2a1,1,0,0,0-1-1H24a1,1,0,0,0-1,1V4a1,1,0,0,0,1,1h2V7.11A20,20,0,0,0,11.31,16a1,1,0,0,0,.28,1.39A1,1,0,0,0,13,17.08a18,18,0,1,1,1.89,22.24,1,1,0,1,0-1.45,1.37,20,20,0,1,0,28.9-27.63Z"></path><path d="M28,40.5a13.47,13.47,0,0,1-6.52-1.68,1,1,0,0,0-1,1.76A15.5,15.5,0,1,0,28,11.5a1,1,0,0,0,0,2,13.5,13.5,0,0,1,0,27Z"></path><path d="M17.79,37.21a1,1,0,0,0,1.42,0L26,30.43A4.05,4.05,0,1,0,24.57,29l-6.78,6.77A1,1,0,0,0,17.79,37.21ZM28,25a2,2,0,1,1-2,2A2,2,0,0,1,28,25Z"></path><path d="M5,22h6a1,1,0,0,0,0-2H5a1,1,0,0,0,0,2Z"></path><path d="M16,26a1,1,0,0,0-1-1H1a1,1,0,0,0,0,2H15A1,1,0,0,0,16,26Z"></path><path d="M19,30H5a1,1,0,0,0,0,2H19a1,1,0,0,0,0-2Z"></path><path d="M14,36a1,1,0,0,0-1-1H3a1,1,0,0,0,0,2H13A1,1,0,0,0,14,36Z"></path></g><g id="SvgjsG1109" featureKey="text1" fill="#009688" transform="matrix(4.078514049043416,0,0,4.078514049043416,156.1057829466692,-17.398448981001636)"><path d="M6.18 10 c3.14 0 5.22 1.9 5.22 4.82 c0 2.88 -2.08 4.6 -5.22 4.6 l-1.76 0 l0 4.58 l-3.22 0 l0 -14 l4.98 0 z M5.98 16.68 c1.3 0 2.2 -0.46 2.2 -1.86 c0 -1.38 -0.9 -1.86 -2.2 -1.86 l-1.56 0 l0 3.72 l1.56 0 z M20.6 13.6 l3.16 0 l0 10.4 l-3.16 0 l0 -1.04 c-0.14 0.36 -1.08 1.24 -2.68 1.24 c-2.38 0 -5.12 -1.7 -5.12 -5.42 c0 -3.58 2.74 -5.36 5.12 -5.36 c1.6 0 2.54 0.92 2.68 1.14 l0 -0.96 z M18.38 21.42 c1.3 0 2.36 -0.9 2.36 -2.64 c0 -1.68 -1.06 -2.58 -2.36 -2.58 c-1.36 0 -2.52 0.92 -2.52 2.58 c0 1.72 1.16 2.64 2.52 2.64 z M30.86 21.36 c0.56 0 0.96 -0.08 1.4 -0.2 l0 2.62 c-0.44 0.2 -1.16 0.34 -2.22 0.34 c-1.74 0 -3.2 -0.58 -3.2 -3.78 l0 -4.14 l-1.46 0 l0 -2.6 l1.46 0 l0 -2.44 l3.16 0 l0 2.44 l2.22 0 l0 2.6 l-2.22 0 l0 4.14 c0 0.46 0.12 1.02 0.86 1.02 z M40.32 13.44 c1.94 0 3.92 1.3 3.92 4.6 l0 5.96 l-3.16 0 l0 -5.74 c0 -1.58 -0.54 -2.08 -1.54 -2.08 c-1.42 0 -2.24 1.38 -2.44 1.98 l0 5.84 l-3.16 0 l0 -14.14 l3.16 0 l0 5.54 c0.2 -0.5 1.26 -1.96 3.22 -1.96 z M51.32 13.42 c2.36 0 5.48 1.78 5.48 5.42 c0 3.66 -3.12 5.36 -5.48 5.36 s-5.48 -1.7 -5.48 -5.36 c0 -3.64 3.12 -5.42 5.48 -5.42 z M51.32 16.2 c-1.2 0 -2.42 0.92 -2.42 2.64 c0 1.66 1.22 2.58 2.42 2.58 s2.44 -0.92 2.44 -2.58 c0 -1.72 -1.24 -2.64 -2.44 -2.64 z M63.38 12.26 c-0.9 0 -0.88 0.82 -0.88 1.02 l0 0.32 l2.16 0 l0 2.6 l-2.16 0 l0 7.8 l-3.18 0 l0 -7.8 l-1.42 0 l0 -2.6 l1.42 0 l0 -0.32 c0 -3.22 2.42 -3.62 3.68 -3.62 c1 0 1.98 0.22 2.72 0.7 l-1.06 2.18 c-0.58 -0.22 -0.8 -0.28 -1.28 -0.28 z M74.74 13.6 l3.16 0 l0 10.4 l-3.16 0 l0 -1.04 c-0.14 0.36 -1.08 1.24 -2.68 1.24 c-2.38 0 -5.12 -1.7 -5.12 -5.42 c0 -3.58 2.74 -5.36 5.12 -5.36 c1.6 0 2.54 0.92 2.68 1.14 l0 -0.96 z M72.52 21.42 c1.3 0 2.36 -0.9 2.36 -2.64 c0 -1.68 -1.06 -2.58 -2.36 -2.58 c-1.36 0 -2.52 0.92 -2.52 2.58 c0 1.72 1.16 2.64 2.52 2.64 z M84.87999999999998 16.88 c-0.28 -0.72 -0.7 -0.96 -1.16 -0.96 c-0.42 0 -0.84 0.24 -0.84 0.64 c0 0.38 0.24 0.6 0.7 0.76 l1.32 0.46 c1.48 0.54 2.98 1.08 2.98 3.16 c0 2.1 -2.1 3.3 -4.26 3.3 c-1.94 0 -3.76 -1.14 -4.2 -2.96 l2.48 -0.78 c0.26 0.58 0.72 1.24 1.72 1.24 c0.68 0 1.12 -0.44 1.12 -0.84 c0 -0.2 -0.16 -0.46 -0.66 -0.66 l-1.22 -0.44 c-2.08 -0.76 -3.06 -1.82 -3.06 -3.3 c0 -1.94 1.8 -3.08 3.78 -3.08 c2.02 0 3.36 1.1 3.96 2.76 z M94.55999999999999 21.36 c0.56 0 0.96 -0.08 1.4 -0.2 l0 2.62 c-0.44 0.2 -1.16 0.34 -2.22 0.34 c-1.74 0 -3.2 -0.58 -3.2 -3.78 l0 -4.14 l-1.46 0 l0 -2.6 l1.46 0 l0 -2.44 l3.16 0 l0 2.44 l2.22 0 l0 2.6 l-2.22 0 l0 4.14 c0 0.46 0.12 1.02 0.86 1.02 z"></path></g><g id="SvgjsG1110" featureKey="text3" fill="#009688" transform="matrix(1.4338504505903074,0,0,1.4338504505903074,159.27937904906372,76.94826531072971)"><path d="M2.86 22.44 l6.28 0 l0 1.56 l-7.94 0 l0 -14 l1.66 0 l0 12.44 z M18.312083070452154 13.42 c1.84 0 3.26 1.02 3.74 2.14 l0 -1.96 l1.64 0 l0 10.4 l-1.64 0 l0 -2 c-0.48 1.2 -1.9 2.2 -3.74 2.2 c-2.36 0 -5.22 -1.78 -5.22 -5.4 c0 -3.58 2.86 -5.38 5.22 -5.38 z M18.492083070452153 14.88 c-1.76 0 -3.8 1.3 -3.8 3.92 c0 2.64 2.04 3.94 3.8 3.94 c1.78 0 3.64 -1.26 3.64 -3.94 c0 -2.66 -1.86 -3.92 -3.64 -3.92 z M33.804166140904314 13.42 c2.36 0 5.22 1.8 5.22 5.38 c0 3.62 -2.86 5.4 -5.22 5.4 c-1.84 0 -3.26 -1 -3.74 -2.2 l0 2 l-1.64 0 l0 -10.4 l0 -3.74 l1.64 0 l0 5.7 c0.48 -1.12 1.9 -2.14 3.74 -2.14 z M33.62416614090431 22.74 c1.76 0 3.8 -1.3 3.8 -3.94 c0 -2.62 -2.04 -3.92 -3.8 -3.92 c-1.78 0 -3.64 1.26 -3.64 3.92 c0 2.68 1.86 3.94 3.64 3.94 z  M62.108332281808615 24 l-1.8 0 l-3.54 -5.04 l-0.38 0 l-2.9 0 l0 5.04 l-1.66 0 l0 -14 l4.56 0 c3.14 0 4.96 1.92 4.96 4.52 c0 2 -1.08 3.56 -3 4.16 z M53.48833228180862 11.56 l0 5.92 l2.86 0 c2.02 0 3.34 -1.04 3.34 -2.96 c0 -1.94 -1.32 -2.96 -3.34 -2.96 l-2.86 0 z M71.18041535226077 13.42 c2.36 0 5.52 1.8 5.1 5.98 l-8.78 0 c0.26 2.28 2.04 3.4 3.92 3.4 c1.44 0 2.36 -0.4 3.14 -1.16 l0.96 0.88 c-0.94 1.12 -2.3 1.68 -4.12 1.68 c-2.68 0 -5.54 -1.8 -5.54 -5.38 c0 -3.6 2.96 -5.4 5.32 -5.4 z M71.18041535226077 14.84 c-1.54 0 -3.38 1.1 -3.68 3.34 l7.34 0 c-0.2 -2.24 -2.1 -3.34 -3.66 -3.34 z M85.99249842271293 13.42 c2.36 0 5.22 1.8 5.22 5.38 c0 3.62 -2.86 5.4 -5.22 5.4 c-1.84 0 -3.26 -1 -3.74 -2.2 l0 5.8 l-1.64 0 l0 -6.52 l0 -7.68 l1.64 0 l0 1.96 c0.48 -1.12 1.9 -2.14 3.74 -2.14 z M85.81249842271293 22.74 c1.76 0 3.8 -1.3 3.8 -3.94 c0 -2.62 -2.04 -3.92 -3.8 -3.92 c-1.78 0 -3.64 1.26 -3.64 3.92 c0 2.68 1.86 3.94 3.64 3.94 z M100.38458149316509 13.42 c2.36 0 5.34 1.8 5.34 5.4 s-2.98 5.38 -5.34 5.38 s-5.32 -1.78 -5.32 -5.38 s2.96 -5.4 5.32 -5.4 z M100.38458149316509 14.88 c-1.68 0 -3.72 1.3 -3.72 3.94 c0 2.62 2.04 3.92 3.72 3.92 c1.7 0 3.74 -1.3 3.74 -3.92 c0 -2.64 -2.04 -3.94 -3.74 -3.94 z M115.51666456361725 13.44 c0.18 0 0.34 0 0.5 0.04 l0 1.54 c-0.16 -0.04 -0.34 -0.04 -0.48 -0.04 c-1.98 0 -3.6 1.42 -3.88 3.76 l0 5.26 l-1.64 0 l0 -10.4 l1.64 0 l0 2.74 c0.38 -1.54 1.8 -2.9 3.86 -2.9 z M124.92874763406941 14.98 l-2.2 0 l0 6.7 c0 0.62 0.24 1 0.84 1 c0.52 0 0.9 -0.12 1.34 -0.32 l0 1.4 c-0.44 0.22 -0.96 0.36 -1.78 0.36 c-1.06 0 -2.02 -0.48 -2.02 -2.3 l0 -6.84 l-1.44 0 l0 -1.38 l1.44 0 l0 -2.44 l1.62 0 l0 2.44 l2.2 0 l0 1.38 z M134.28083070452155 16.12 c-0.4 -0.84 -1.06 -1.36 -2.02 -1.36 c-1 0 -1.68 0.6 -1.68 1.4 c0 0.72 0.38 1.24 1.42 1.62 l1.04 0.36 c1.74 0.62 3.02 1.26 3.02 3.08 c0 1.98 -1.92 3 -3.7 3 c-1.8 0 -3.4 -1.04 -3.78 -2.78 l1.32 -0.4 c0.32 1.14 1.26 1.84 2.46 1.84 c1.04 0 2.08 -0.6 2.08 -1.64 c0 -0.9 -0.62 -1.38 -1.7 -1.76 l-1.16 -0.42 c-1.82 -0.64 -2.6 -1.66 -2.6 -2.9 c0 -1.62 1.44 -2.74 3.24 -2.74 c1.68 0 2.86 0.92 3.42 2.3 z  M150.34499684542587 9.86 l0 1.46 l-1.64 0 l0 -1.46 l1.64 0 z M150.34499684542587 13.6 l0 10.4 l-1.64 0 l0 -10.4 l1.64 0 z M160.45707991587804 13.44 c2.02 0 3.98 1.3 3.98 4.52 l0 6.04 l-1.64 0 l0 -6 c0 -2.18 -1.14 -3.12 -2.68 -3.12 c-1.86 0 -3.14 1.72 -3.4 2.98 l0 6.14 l-1.64 0 l0 -10.4 l1.64 0 l0 2.42 c0.2 -0.72 1.46 -2.58 3.74 -2.58 z  M178.34124605678232 20.48 c0.6 1.38 1.8 2.26 3.4 2.26 c1.54 0 3.28 -0.9 3.28 -3.1 c0 -2.32 -2.02 -3.46 -4.6 -2.96 l3.3 -5.24 l-6.04 0 l0 -1.44 l8.48 0 l-3.52 5.48 c2.1 0.06 4.04 1.62 4.04 4.16 c0 2.86 -2.26 4.56 -4.94 4.56 c-2.34 0 -4.04 -1.28 -4.7 -3.02 z M196.35332912723447 9.8 c3.14 0 5.5 2.6 5.5 7.2 s-2.36 7.2 -5.5 7.2 s-5.52 -2.6 -5.52 -7.2 s2.38 -7.2 5.52 -7.2 z M196.35332912723447 11.24 c-2.52 0 -3.92 2.44 -3.92 5.76 c0 3.34 1.4 5.74 3.92 5.74 c2.5 0 3.9 -2.4 3.9 -5.74 c0 -3.32 -1.4 -5.76 -3.9 -5.76 z  M227.23749526813882 13.44 c1.88 0 3.86 1.18 3.86 4.5 l0 6.06 l-1.62 0 l0 -6.1 c0 -2.04 -1.08 -3.02 -2.64 -3.02 c-1.76 0 -2.8 1.46 -3.08 2.94 l0 6.18 l-1.62 0 l0 -6.1 c0 -2.04 -1.26 -3.02 -2.66 -3.02 c-1.86 0 -2.82 1.58 -3.04 2.94 l0 6.18 l-1.64 0 l0 -10.4 l1.64 0 l0 2.44 c0.1 -0.74 1.12 -2.6 3.36 -2.6 c1.38 0 3.02 0.78 3.66 2.62 c0.36 -1.08 1.62 -2.62 3.78 -2.62 z M237.22957833859095 9.86 l0 1.46 l-1.64 0 l0 -1.46 l1.64 0 z M237.22957833859095 13.6 l0 10.4 l-1.64 0 l0 -10.4 l1.64 0 z M247.34166140904313 13.44 c2.02 0 3.98 1.3 3.98 4.52 l0 6.04 l-1.64 0 l0 -6 c0 -2.18 -1.14 -3.12 -2.68 -3.12 c-1.86 0 -3.14 1.72 -3.4 2.98 l0 6.14 l-1.64 0 l0 -10.4 l1.64 0 l0 2.42 c0.2 -0.72 1.46 -2.58 3.74 -2.58 z M260.87374447949526 16.12 c-0.4 -0.84 -1.06 -1.36 -2.02 -1.36 c-1 0 -1.68 0.6 -1.68 1.4 c0 0.72 0.38 1.24 1.42 1.62 l1.04 0.36 c1.74 0.62 3.02 1.26 3.02 3.08 c0 1.98 -1.92 3 -3.7 3 c-1.8 0 -3.4 -1.04 -3.78 -2.78 l1.32 -0.4 c0.32 1.14 1.26 1.84 2.46 1.84 c1.04 0 2.08 -0.6 2.08 -1.64 c0 -0.9 -0.62 -1.38 -1.7 -1.76 l-1.16 -0.42 c-1.82 -0.64 -2.6 -1.66 -2.6 -2.9 c0 -1.62 1.44 -2.74 3.24 -2.74 c1.68 0 2.86 0.92 3.42 2.3 z"></path></g>
			</g>
		</svg>
	